<svg xmlns="http://www.w3.org/2000/svg" width="131.8" height="131.7" viewBox="0 0 131.8 131.7"><title>Asset 1</title><g id="Layer_2" data-name="Layer 2"><g id="Layer_1-2" data-name="Layer 1"><rect id="background" width="131.8" height="131.75"/><path d="M71.8,50c-1-.2-19.8-.2-20.4,0v61c.9.2,19.7.1,20.4-.1v-35a10.9,10.9,0,0,1,1.9-6.3,11.4,11.4,0,0,1,4.4-4,11.7,11.7,0,0,1,6.4-.9,8.6,8.6,0,0,1,4.1,1.6,10,10,0,0,1,3.6,5.6,23.5,23.5,0,0,1,.8,7V110c0,.4.1.7.1,1s19.7.1,20.3,0V76.3a51,51,0,0,0-.7-8.7,25.6,25.6,0,0,0-5.6-12,18.3,18.3,0,0,0-6.5-4.9,25.7,25.7,0,0,0-15.7-1.8,18.9,18.9,0,0,0-11.3,7l-1.8,2.4ZM40,111.1c.3-.8.2-60.6,0-61.2H19.9c-.2.8-.2,60.5,0,61.2Zm1.5-80a10.2,10.2,0,0,0-6.7-9.9,14.5,14.5,0,0,0-8-.4,11.1,11.1,0,0,0-5.3,2.9A10,10,0,0,0,18.8,33a9.5,9.5,0,0,0,5.8,7.5,12.4,12.4,0,0,0,8.3.8A10.2,10.2,0,0,0,41.5,31.1Z" fill="#fff"/><path d="M71.8,50v8.3l1.8-2.4a18.9,18.9,0,0,1,11.3-7,25.7,25.7,0,0,1,15.7,1.8,18.3,18.3,0,0,1,6.5,4.9,25.6,25.6,0,0,1,5.6,12,51,51,0,0,1,.7,8.7V111c-.6.1-19.4.2-20.3,0s-.1-.6-.1-1V78.9a23.5,23.5,0,0,0-.8-7,10,10,0,0,0-3.6-5.6,8.6,8.6,0,0,0-4.1-1.6,11.7,11.7,0,0,0-6.4.9,11.4,11.4,0,0,0-4.4,4,10.9,10.9,0,0,0-1.9,6.3v35c-.7.2-19.5.3-20.4.1V50C52,49.8,70.8,49.8,71.8,50Z" fill="#fff"/><path d="M40,111.1H19.9c-.2-.7-.2-60.4,0-61.2H40C40.2,50.5,40.3,110.3,40,111.1Z" fill="#fff"/><path d="M41.5,31.1a10.2,10.2,0,0,1-8.6,10.2,12.4,12.4,0,0,1-8.3-.8A9.5,9.5,0,0,1,18.8,33a10,10,0,0,1,2.7-9.3,11.1,11.1,0,0,1,5.3-2.9,14.5,14.5,0,0,1,8,.4A10.2,10.2,0,0,1,41.5,31.1Z" fill="#fff"/></g></g></svg>