<svg xmlns="http://www.w3.org/2000/svg" width="114" height="72.7" viewBox="0 0 114 72.7"><title>Asset 4</title><g id="Layer_2" data-name="Layer 2"><g id="Layer_1-2" data-name="Layer 1"><path d="M47.7,33.2c7.4-3,9.6-12.1,7.3-21.2S40.5.3,33.3.3L0,0V71.1H27.9C47.3,71.1,52.1,67.4,57,57S55.1,35.6,47.7,33.2ZM14.5,12.7H32.3c4.2,0,9.2,1.7,9.2,7.7s-3.6,7.8-11.2,7.8H14.5Zm28.7,38c-.6,6.3-5.7,7.7-11.9,7.7H14.5V39.9H33.9C41.9,39.9,43.8,45.2,43.2,50.7Z"/><rect x="72" y="4.3" width="30.3" height="7.27"/><path d="M86.1,61.4c-9.3-1.4-10-12.2-10-12.2H114c0-6.3,0-16.7-5.6-23.3S89.9,13.4,74.8,20.4s-14.7,31-9.5,40.5S81.9,72.7,90.9,72.7s21.7-7.1,22.5-17.3H99.6C98.6,57,95.3,62.8,86.1,61.4ZM88,28.8c10.7,0,11.9,11.1,11.9,11.1H76.2S77.4,28.8,88,28.8Z"/></g></g></svg>