<svg xmlns="http://www.w3.org/2000/svg" width="131.9" height="128.1" viewBox="0 0 131.9 128.1"><title>Asset 6</title><g id="Layer_2" data-name="Layer 2"><g id="Layer_1-2" data-name="Layer 1"><path d="M115,104.2c-3.1,2-30,10.2-44.6-8C67,91.5,61.6,81.3,54.7,67.1c-1.8-3.9-3.9-8.7-7.4-9.2l-.2,23.6c0,4.6.1,8.7,2.1,10.5s4.4,1.9,7.2,2.1c1,.1,1.6.6,1.6,1.5A1.1,1.1,0,0,1,56.8,97H20.2a1.8,1.8,0,0,1-1.8-1.4c-.1-.9.5-1.5,1.6-1.5,3.8-.2,6.2-.5,7.9-2.9s1.5-5.1,1.6-9.6V40.3c0-5.3-.3-8.4-2.1-10.2s-4.1-1.7-7.2-2a1.8,1.8,0,0,1-1.7-1.5A1.3,1.3,0,0,1,20,25.2H56.5a1.6,1.6,0,0,1,1.7,1.4c.2.9-.3,1.5-1.4,1.5-3.9.2-6.4.5-7.9,3s-1.6,5-1.6,9.5V54.1c5.5-1.1,10.5-4.1,15.1-8S72,34.4,71,30.9c-.5-1.9-1.9-2.5-4.2-2.7a2,2,0,0,1-1.9-1.6c-.2-.9.5-1.4,1.3-1.4H92.7a1.6,1.6,0,0,1,1.7,1.3c.1.5.1,1.4-1.2,1.6l-2.3.3a16.1,16.1,0,0,0-8.4,3.5A98.6,98.6,0,0,0,71.9,42.3c-4,4.4-7.8,8-16.1,13,8.4,1.5,13.4,5.9,17.3,11.8S84.4,86.2,87.4,91.6c4.8,8.4,13.7,11.1,20.3,11.1a13.5,13.5,0,0,0,6-1.4,1.6,1.6,0,0,1,2.2.7C116.1,102.5,116.3,103.4,115,104.2Z" fill="#231f20"/><path d="M131.9,128.1H0V0H131.9ZM5.7,122.4H126.2V5.7H5.7Z" fill="#231f20"/><circle cx="106" cy="89.4" r="7.7" fill="#231f20"/></g></g></svg>