<svg xmlns="http://www.w3.org/2000/svg" width="93" height="93" viewBox="0 0 93 93"><title>Asset 3</title><g id="Layer_2" data-name="Layer 2"><g id="Layer_1-2" data-name="Layer 1"><path d="M65.2,93H27.8A27.9,27.9,0,0,1,0,65.2V27.8A27.9,27.9,0,0,1,27.8,0H65.2A27.9,27.9,0,0,1,93,27.8V65.2A27.9,27.9,0,0,1,65.2,93ZM27.8,9.5A18.3,18.3,0,0,0,9.5,27.8V65.2A18.3,18.3,0,0,0,27.8,83.5H65.2A18.3,18.3,0,0,0,83.5,65.2V27.8A18.3,18.3,0,0,0,65.2,9.5Z"/><path d="M46.5,71.8A25.3,25.3,0,1,1,71.8,46.5,25.4,25.4,0,0,1,46.5,71.8Zm0-42.4A17.1,17.1,0,1,0,63.6,46.5,17.2,17.2,0,0,0,46.5,29.4Z"/><circle cx="71.5" cy="21.5" r="3.8"/></g></g></svg>