<svg xmlns="http://www.w3.org/2000/svg" width="94.9" height="90.7" viewBox="0 0 94.9 90.7"><title>Asset 2</title><g id="Layer_2" data-name="Layer 2"><g id="Layer_1-2" data-name="Layer 1"><path d="M53.2,29.6c-.9-.2-19.8-.2-20.4,0v61c.9.2,19.7.2,20.4,0V55.5a10.9,10.9,0,0,1,1.9-6.3,11,11,0,0,1,4.4-3.9,11.9,11.9,0,0,1,6.4-1A8.6,8.6,0,0,1,70,45.9a10.1,10.1,0,0,1,3.7,5.6,27.4,27.4,0,0,1,.8,7V90.6c.9.2,19.7.2,20.4,0V56a43,43,0,0,0-.8-8.8,25.1,25.1,0,0,0-5.6-12,19.2,19.2,0,0,0-6.4-4.9,25,25,0,0,0-15.7-1.7A18.7,18.7,0,0,0,55,35.5c-.6.7-1.1,1.5-1.8,2.4ZM21.5,90.7c.2-.8.2-60.5,0-61.2H1.3c-.2.8-.2,60.5,0,61.2Zm1.4-80A10.2,10.2,0,0,0,16.2.8,14.2,14.2,0,0,0,8.3.4,11,11,0,0,0,2.9,3.3,10.2,10.2,0,0,0,.2,12.6,9.7,9.7,0,0,0,6,20.1a13.2,13.2,0,0,0,8.3.9A10.2,10.2,0,0,0,22.9,10.7Z"/><path d="M53.2,29.6v8.3c.7-.9,1.2-1.7,1.8-2.4a18.7,18.7,0,0,1,11.4-6.9,25,25,0,0,1,15.7,1.7,19.2,19.2,0,0,1,6.4,4.9,25.1,25.1,0,0,1,5.6,12,43,43,0,0,1,.8,8.8V90.6c-.7.2-19.5.2-20.4,0V58.5a27.4,27.4,0,0,0-.8-7A10.1,10.1,0,0,0,70,45.9a8.6,8.6,0,0,0-4.1-1.6,11.9,11.9,0,0,0-6.4,1,11,11,0,0,0-4.4,3.9,10.9,10.9,0,0,0-1.9,6.3V90.6c-.7.2-19.5.2-20.4,0v-61C33.4,29.4,52.3,29.4,53.2,29.6Z"/><path d="M21.5,90.7H1.3c-.2-.7-.2-60.4,0-61.2H21.5C21.7,30.2,21.7,89.9,21.5,90.7Z"/><path d="M22.9,10.7A10.2,10.2,0,0,1,14.3,21,13.2,13.2,0,0,1,6,20.1,9.7,9.7,0,0,1,.2,12.6,10.2,10.2,0,0,1,2.9,3.3,11,11,0,0,1,8.3.4a14.2,14.2,0,0,1,7.9.4A10.2,10.2,0,0,1,22.9,10.7Z"/></g></g></svg>