<svg xmlns="http://www.w3.org/2000/svg" width="898.6" height="474.1" viewBox="0 0 898.6 474.1"><title>Asset 5</title><g id="Layer_2" data-name="Layer 2"><g id="Layer_1-2" data-name="Layer 1"><path d="M992.6,378.1H94V-96H992.6Zm-877.7-21H971.6V-75.1H114.9Z" transform="translate(-94 96)" fill="#fff"/><path d="M579.4,161.8c-7.7,4.9-73.8,25-109.8-19.8-8.4-11.5-21.7-36.7-38.5-71.7-4.6-9.4-9.7-21.1-18.4-22.4l-.4,57.9c-.1,11.5.3,21.4,5.1,26s10.8,4.6,17.8,5.1c2.3.3,3.9,1.5,4,3.6a2.9,2.9,0,0,1-3.1,3.6h-90a4.5,4.5,0,0,1-4.3-3.6c-.4-2.1,1.1-3.6,3.9-3.6,9.3-.5,15.3-1.3,19.5-7.1s3.7-12.5,3.8-23.7l.3-101.6c0-13-.7-20.6-5.1-25s-10.1-4.3-17.9-5.1a4.1,4.1,0,0,1-4-3.5c-.4-2.1,1.1-3.6,3.4-3.6h89.8a4.2,4.2,0,0,1,4.3,3.6c.4,2.3-.9,3.5-3.7,3.5-9.6.5-15.6,1.3-19.5,7.4s-3.7,12.3-3.8,23.5V38.5c13.4-2.8,25.8-10,36.9-19.7,14.3-13,24-28.8,21.5-37.5-1.1-4.6-4.7-6.1-10.2-6.6-3.7-.5-4.6-2.6-4.8-3.8a2.9,2.9,0,0,1,3.1-3.6h65.3a4.2,4.2,0,0,1,4.2,3.3c.3,1.3.2,3.3-3.1,3.8-.9.3-4.5.5-5.4.8a40.3,40.3,0,0,0-20.8,8.7C493-11,483.1-1.6,473.3,9.4S454.2,29,433.7,41.5c20.8,3.6,32.9,14.6,42.6,28.8,8,12.3,27.8,47.2,35.2,60.5,11.7,20.7,33.8,27.2,49.8,27.2a35,35,0,0,0,14.9-3.3c2.1-1,4.6-.3,5.4,1.5S582.6,159.8,579.4,161.8Z" transform="translate(-94 96)" fill="#fff"/><path d="M653.9,122.4c-7.5,13.5-21.1,23.4-38.2,23.4-11.5,0-19.1-8.9-21.7-19.6-5,13.5-18.6,19.9-33.4,19.9s-29.6-7.9-32.8-24.5c-6.6-33.9,38.2-39.5,63-41.8.2-9.5.6-24.3-.9-32.2s-5.5-11.9-12.8-11.9c-9.2,0-15.3,6.8-13.5,16a9.5,9.5,0,0,0,8.4,7.7c-3.8,7.9-12.6,11.5-22,11.5S533.7,67,532,58.1c-4.7-23.7,37.5-29.6,54.6-29.6,14.8,0,37.3,4.1,41,23a87.5,87.5,0,0,1,.9,11.4v51.3a13.8,13.8,0,0,0,.4,4.9c.9,4.5,3.3,7.6,8.4,7.6,8.1,0,11.5-10.4,14.5-10.4a3.3,3.3,0,0,1,3.1,2.5A4.8,4.8,0,0,1,653.9,122.4Zm-63.1-36c-18.6,1.3-29,16.1-25.4,34.7,1.2,5.9,5.2,12,11.8,12,12,0,13.2-17.4,13.4-26.5Z" transform="translate(-94 96)" fill="#fff"/><path d="M727.1,41.5l-25.9.3L701,105c-.1,4.6-.2,9.5.8,14.3,1.2,6.4,4.5,11.2,11.6,11.2,14.8,0,21.5-15.5,24.5-15.5a2.9,2.9,0,0,1,2.8,2.5,4.2,4.2,0,0,1-.6,3.3c-1.4,3.4-4.1,6.4-6.7,9-11.3,11.2-27.7,17.6-45.5,17.6-13,0-20.5-8.4-23-20.9-1.2-6.2-1.1-12.3-1-18.4.7-20.9,1.1-45.4,1-66.6h-15a4,4,0,0,1-3.9-3c-.4-2.1.4-3.1,2.1-3.6,8.3-2.8,15.6-6.1,22.5-11.2a118,118,0,0,0,21-23c1.2-1.8,2.9-3.6,5.5-3.6s4.1,1.8,4.6,4.4c.2,1,.2,2,.4,3-.3,9-.9,17.9-.9,27.1H729a3.4,3.4,0,0,1,3.6,2.8A5.9,5.9,0,0,1,727.1,41.5Z" transform="translate(-94 96)" fill="#fff"/><path d="M906.4,203.6c-2.2-11.2-10.8-17.3-21.8-17.3-28.3,0-35.6,40.5-39.1,62.2h-2c.4-6.9,3.9-54.1,3.2-57.9s-2.8-3.8-5.1-3.8c-4.4,0-16.8,2.6-28.4,5.5a3.5,3.5,0,0,0-2.7,3.5v27.7l-.4,74.7a5.6,5.6,0,0,0,0,1.3,4.5,4.5,0,0,0,4.8,3.8h28.8c3.3,0,4.5-1.8,4.7-4.8.3-10.2.9-20.2,2-30.3.4-3.6,1.3-10.4,2.7-18.2,3.6-19.4,10.6-45.4,22.4-45.4a4.1,4.1,0,0,1,4.2,3.1c.7,4.1-3.6,5.1-2.6,10.7s7.2,9.2,12.6,9.2C902.9,227.6,908.8,216.1,906.4,203.6Z" transform="translate(-94 96)" fill="#fff"/><path d="M682.6,200.8l-25.9.3-.2,63.2c-.1,4.6-.2,9.5.8,14.3,1.2,6.4,4.5,11.2,11.6,11.2,14.8,0,21.5-15.5,24.5-15.5a2.8,2.8,0,0,1,2.8,2.5,4.2,4.2,0,0,1-.6,3.3c-1.4,3.3-4.1,6.4-6.7,9-11.3,11.2-27.7,17.6-45.5,17.6-13,0-20.5-8.5-23-21-1.2-6.1-1.1-12.2-1-18.3.7-20.9,1.1-45.4,1-66.6h-15a4,4,0,0,1-3.9-3.1c-.4-2,.4-3,2.1-3.5,8.3-2.8,15.6-6.1,22.5-11.2a115,115,0,0,0,21-23c1.2-1.8,2.9-3.6,5.5-3.6s4.1,1.8,4.6,4.4c.2,1,.2,2,.4,3-.3,8.9-.9,17.9-.9,27.1h27.8a3.4,3.4,0,0,1,3.6,2.8A5.9,5.9,0,0,1,682.6,200.8Z" transform="translate(-94 96)" fill="#fff"/><path d="M790.6,235.8c-10.7,14-33.5,19.1-52.4,18.8a102.9,102.9,0,0,0,1.4,12.3c3,15.5,10.9,28.3,28.2,28.3,15.1,0,22-8.9,27.7-20.2.8-1.2,1.6-2.3,3.1-2.3a4.3,4.3,0,0,1,4,3.6,6.5,6.5,0,0,1-.1,3.1c-7.2,18.3-22,27.3-43.2,27.3-29.5,0-53.8-13.3-60-44.9-8.3-42.6,18.9-74.5,61.2-74.5,15.6,0,32.3,6.1,35.8,24A30.4,30.4,0,0,1,790.6,235.8Zm-35.5-42.1c-16,0-17.2,39.8-16.9,51.7a34.2,34.2,0,0,0,8.9,1.3c18.6,0,19.6-19.9,18.7-34.9a40.7,40.7,0,0,0-.7-6.1C764.1,200.6,761.5,193.7,755.1,193.7Z" transform="translate(-94 96)" fill="#fff"/><path d="M466.2,276.7a3.3,3.3,0,0,0-3.3-2.6c-2.3,0-7.7,9-15.8,9-4.9,0-7.6-3.3-8.5-8a27.4,27.4,0,0,1-.4-4.8l.2-77.5a4,4,0,0,0-.2-1.8c-.4-2.6-2.2-3.8-4.8-3.8-4.3,0-16.9,2.6-28.4,5.6a3.7,3.7,0,0,0-2.9,3.8c.2,9.7.3,40.6-6.7,64.3q-1.2,4.1-2.7,7.8l-1,2.4c-4.3,9.4-9.6,16.1-16,16.1-4.1,0-5.8-3.4-6.5-6.9a46.6,46.6,0,0,1-.6-8.2l.4-79.3a5.7,5.7,0,0,0-.1-1.8c-.5-2.6-2.3-3.8-4.8-3.8-4.4,0-17.1,2.6-28.9,5.5a3.8,3.8,0,0,0-2.9,3.7v23.8h-.1v2.4l-.2,49.8a60.7,60.7,0,0,0,.8,9.4c2.9,14.8,13,20.6,27,20.6,20.3,0,31.8-13.2,38.7-29.2l1.2-2.8a85.1,85.1,0,0,0,2.9-8.5c.3,7.9-.4,16.3,1.2,24.2,2.1,11,8.5,16.3,19.2,16.3,16.9,0,33.6-9.9,42.3-22.4A3.8,3.8,0,0,0,466.2,276.7Z" transform="translate(-94 96)" fill="#fff"/><path d="M612.5,279.4a3.1,3.1,0,0,0-3.3-2.6c-2.8,0-7.9,9.5-16.3,9.5-5.3,0-8-3.4-9-8.5a39.1,39.1,0,0,1-.5-4.8l.2-56.4a36.1,36.1,0,0,0-.7-9.2c-3.1-15.8-14.5-20.6-28.8-20.6-25.3,0-35.8,16.5-43.3,36.7V192.6a4.6,4.6,0,0,0-.1-1.7c-.6-2.8-2.3-4.1-5.2-4.1-4.4,0-17.5,2.7-29.6,5.7a4.4,4.4,0,0,0-3.3,4.2V221c0,.9.1,1.7.1,2.5l-.5,74.7a13,13,0,0,1,.3,1.3c.5,2.6,2.3,3.8,4.8,3.8h28.3c3.3,0,4.5-1.8,4.7-4.8.5-8.9.2-18.6.2-27.8a131.6,131.6,0,0,1,2-23.5,142.1,142.1,0,0,1,5.7-21.3c4.4-12.2,11-24.3,19.8-24.3,4.4,0,6.2,4.1,6.9,7.6a50.9,50.9,0,0,1,.6,8.7l-.3,63.5a36.5,36.5,0,0,0,.8,7.9c2.2,11.5,10.2,17.1,21.2,17.1,15.5,0,28.9-7.1,38.8-16.8,1.9-2.1,4.2-4.4,5.5-6.7A4.1,4.1,0,0,0,612.5,279.4Z" transform="translate(-94 96)" fill="#fff"/><path d="M311,164.1c-.7,3-1.5,5.3-5.1,5.3s-4.5-3.5-5-6.3c-4-20.2-15.4-31.9-36.6-31.9-16.8,0-35.4,8.1-31.6,27.8,6.6,33.6,79.2,28,89.1,78.8,3.5,17.6,1,36.2-9.3,48.7-14.2,17.4-36,21.9-60.3,21.9-11.2,0-35.5-3-46.2-8.1-2.8-1.3-5.1-2.8-5.7-5.9s-.6-35.4.3-40c.5-2.6,1.5-4.4,4.5-4.4s4.4,2.8,5.2,5.4c1.6,4.3,2.4,8.4,4.5,13,8.1,16.3,23.9,29.3,41.7,29.3,22,0,38.9-11.2,34.2-35.4-7.8-39.6-79.3-26-89.9-79.9-8.6-44.1,28.1-61.2,66.6-61.2,9.5,0,26.9,1.6,36.3,4.4,4.1,1,7.1,2.3,8,6.6C312.8,138.1,312,158.7,311,164.1Z" transform="translate(-94 96)" fill="#fff"/></g></g></svg>