<svg xmlns="http://www.w3.org/2000/svg" width="703.7" height="371.1" viewBox="0 0 703.7 371.1"><title>Asset 1</title><g id="Layer_2" data-name="Layer 2"><g id="Layer_1-2" data-name="Layer 1"><path d="M375.5,203.2c-6.1,3.8-14,6.4-24.8,6.4-22.9,0-40.3-5-54.5-24.1-6.5-9-17-28.8-30.1-56.2-3.7-7.4-7.6-16.6-14.4-17.6l-.4,45.4c0,9,.3,16.8,4,20.4s8.5,3.6,14,4c1.8.2,3,1.2,3.1,2.8a2.2,2.2,0,0,1-2.4,2.8H199.4a3.4,3.4,0,0,1-3.3-2.8c-.3-1.6.8-2.8,3-2.8,7.3-.4,12-1,15.3-5.6s2.9-9.8,3-18.6l.2-79.6c0-10.2-.5-16.2-4-19.6s-7.8-3.4-14-4a3.2,3.2,0,0,1-3.1-2.8c-.3-1.6.8-2.8,2.6-2.8h70.4a3.3,3.3,0,0,1,3.3,2.8c.4,1.8-.6,2.8-2.8,2.8-7.5.4-12.2,1-15.3,5.8s-2.9,9.6-3,18.4v26c10.6-2.2,20.3-7.8,29-15.4,11.2-10.2,18.8-22.6,16.8-29.4-.9-3.6-3.7-4.8-8-5.2s-3.6-2-3.8-3a2.4,2.4,0,0,1,2.5-2.8h51.2a3.2,3.2,0,0,1,3.3,2.6c.2,1,.1,2.6-2.4,3-.8.2-3.6.4-4.3.6a32.1,32.1,0,0,0-16.3,6.8,191.1,191.1,0,0,0-20.5,20c-7.7,8.6-15,15.4-31,25.2,16.3,2.8,25.8,11.4,33.4,22.6,6.2,9.6,21.8,37,27.6,47.4,9.2,16.2,19.6,23.5,32.2,23.5a29.4,29.4,0,0,0,11.7-2.5,3.2,3.2,0,0,1,4.2,1.1C377.6,199.8,378,201.6,375.5,203.2Z" fill="#231f20"/><path d="M436.1,170.1c-5.9,10.6-16.6,18.4-29.9,18.4-9,0-15-7-17-15.4-4,10.6-14.6,15.6-26.2,15.6s-23.2-6.2-25.7-19.2c-5.2-26.6,29.9-31,49.3-32.8.2-7.4.5-19-.7-25.2s-4.2-9.4-10-9.4-11.9,5.4-10.5,12.6a7.3,7.3,0,0,0,6.5,6c-3,6.2-9.8,9-17.2,9s-12.8-3-14.1-10c-3.7-18.6,29.4-23.2,42.8-23.2,11.6,0,29.2,3.2,32.1,18a54.6,54.6,0,0,1,.7,9v40.2a12.2,12.2,0,0,0,.3,3.8c.7,3.6,2.6,6,6.6,6,6.4,0,9-8.2,11.4-8.2a2.6,2.6,0,0,1,2.4,2A3.7,3.7,0,0,1,436.1,170.1Zm-49.4-28.2c-14.6,1-22.8,12.6-19.9,27.2.9,4.6,4,9.4,9.2,9.4,9.4,0,10.4-13.6,10.5-20.8Z" fill="#231f20"/><path d="M496.5,106.7l-20.3.2v49.6a53.1,53.1,0,0,0,.5,11.2c1,5,3.6,8.8,9.2,8.8,11.6,0,16.8-12.2,19.2-12.2a2.4,2.4,0,0,1,2.2,2,4.5,4.5,0,0,1-.5,2.6,24,24,0,0,1-5.3,7c-8.8,8.8-21.7,13.8-35.7,13.8-10.1,0-16-6.6-17.9-16.4-1-4.8-.9-9.6-.9-14.4.6-16.4.9-35.6.8-52.2H436a3.2,3.2,0,0,1-3.1-2.4,2.1,2.1,0,0,1,1.6-2.8,61.1,61.1,0,0,0,17.7-8.8,91.3,91.3,0,0,0,16.5-18c.9-1.4,2.2-2.8,4.2-2.8s3.3,1.4,3.7,3.4.1,1.6.3,2.4c-.3,7-.7,14-.7,21.2H498a2.7,2.7,0,0,1,2.8,2.2A4.6,4.6,0,0,1,496.5,106.7Z" fill="#231f20"/><path d="M152.6,201.7c-.5,2.4-1.2,4.2-4,4.2s-3.5-2.8-4-5c-3-15.8-12-25-28.6-25-13.2,0-27.8,6.4-24.7,21.8,5.1,26.4,62,22,69.8,61.8,2.7,13.8.7,28.4-7.4,38.2-11.1,13.6-28.2,17.2-47.2,17.2-8.8,0-27.8-2.4-36.2-6.4-2.2-1-4-2.2-4.5-4.6s-.4-27.8.3-31.4c.4-2,1.1-3.4,3.5-3.4s3.4,2.2,4,4.2,1.9,6.6,3.6,10.2c6.3,12.8,18.7,23,32.7,23,17.2,0,30.5-8.8,26.7-27.8-6-31-62.1-20.4-70.3-62.6-6.8-34.6,22-48,52.2-48,7.4,0,21,1.2,28.4,3.4,3.2.8,5.6,1.8,6.2,5.2S153.4,197.5,152.6,201.7Z" fill="#231f20"/><path d="M282.7,295.7c-6.9,9.8-20,17.6-33.2,17.6-8.4,0-13.4-4.2-15.1-12.8-1.2-6.2-.7-12.8-.9-19-4.8,16-13.9,31.8-33.5,31.8-11,0-18.9-4.6-21.2-16.2a37,37,0,0,1-.6-7.4l.2-39a32.4,32.4,0,0,0-.5-6.2c-1.5-8-6-8.2-12.4-8.2-1.4,0-2.7,0-3.1-1.8s.5-1.6,1.2-2.2c5.3-2.6,33.5-9.4,39.7-9.4a4,4,0,0,1,3.9,4.4l-.3,62.2a28.5,28.5,0,0,0,.5,6.4c.5,2.8,1.8,5.4,5,5.4,14.8,0,22.6-45.2,20.2-57.6-1.5-7.6-5.7-7.4-11.5-7.4-1.4,0-2.8-.2-3.1-1.8a1.8,1.8,0,0,1,1.1-2.2c5.3-2.6,32.4-9.4,38.6-9.4a3.5,3.5,0,0,1,3.8,3,2.2,2.2,0,0,1,0,1.4v60.8a26.4,26.4,0,0,0,.3,3.8c.8,3.6,2.9,6.2,6.7,6.2,6.4,0,10.6-7,12.4-7a2.6,2.6,0,0,1,2.6,2A3.2,3.2,0,0,1,282.7,295.7Z" fill="#231f20"/><path d="M401.8,294.9a29.7,29.7,0,0,1-4.3,5.2c-7.7,7.6-18.2,13.2-30.4,13.2-8.6,0-14.9-4.4-16.6-13.4a27.4,27.4,0,0,1-.7-6.2l.3-49.8a38.9,38.9,0,0,0-.5-6.8c-.6-2.8-2-6-5.4-6-11.6,0-18.5,27-20,35.8a112.4,112.4,0,0,0-1.6,18.4c0,7.2.3,14.8-.1,21.8-.2,2.4-1.1,3.8-3.7,3.8H296.6a3.4,3.4,0,0,1-3.7-3,5.8,5.8,0,0,1-.2-1l.3-58.6a29.6,29.6,0,0,0-.7-6.6c-1.6-8.4-6.2-8.2-12.8-8.2-1.4,0-2.8-.2-3.2-2a1.9,1.9,0,0,1,1.4-2.2c5.3-2.6,34.7-9.8,41.1-9.8,2.2,0,3.6,1,4,3.2a3.1,3.1,0,0,1,.1,1.4v24.2c5.9-15.8,14.2-28.8,33.9-28.8,11.2,0,20.2,3.8,22.6,16.2a29.2,29.2,0,0,1,.6,7.2l-.2,44.2a24.5,24.5,0,0,0,.4,3.8c.8,4,2.9,6.6,7.1,6.6,6.6,0,10.5-7.4,12.7-7.4a2.4,2.4,0,0,1,2.6,2A3.2,3.2,0,0,1,401.8,294.9Z" fill="#231f20"/><path d="M462,230.5l-20.3.2v49.6a47.4,47.4,0,0,0,.6,11.2c.9,5,3.5,8.8,9.1,8.8,11.6,0,16.8-12.2,19.2-12.2a2.4,2.4,0,0,1,2.2,2,3.8,3.8,0,0,1-.5,2.6,22.4,22.4,0,0,1-5.3,7c-8.8,8.8-21.6,13.8-35.6,13.8-10.2,0-16.1-6.6-18-16.4-1-4.8-.9-9.6-.8-14.4.6-16.4.8-35.6.8-52.2H401.5a3.2,3.2,0,0,1-3.1-2.4,2.1,2.1,0,0,1,1.7-2.8,61.8,61.8,0,0,0,17.6-8.8,91.3,91.3,0,0,0,16.5-18c.9-1.4,2.2-2.8,4.2-2.8s3.3,1.4,3.7,3.4.1,1.6.3,2.4c-.3,7-.7,14-.7,21.2h21.8a2.6,2.6,0,0,1,2.8,2.2A4.6,4.6,0,0,1,462,230.5Z" fill="#231f20"/><path d="M548.9,257.9c-8.4,11-26.2,15-41.1,14.8.3,3.2.5,6.4,1.1,9.6,2.4,12.2,8.5,22.2,22.1,22.2,11.8,0,17.3-7,21.7-15.8a2.9,2.9,0,0,1,2.5-1.8,3.3,3.3,0,0,1,3.1,2.8,4.9,4.9,0,0,1-.1,2.4c-5.6,14.4-17.2,21.4-33.8,21.4-23.2,0-42.2-10.4-47-35.2-6.6-33.4,14.7-58.4,47.9-58.4,12.2,0,25.3,4.8,28.1,18.8A23.7,23.7,0,0,1,548.9,257.9Zm-27.8-33c-12.6,0-13.5,31.2-13.3,40.6a28.2,28.2,0,0,0,7,1c14.6,0,15.4-15.6,14.7-27.4a39.3,39.3,0,0,0-.6-4.8C528.1,230.3,526.1,224.9,521.1,224.9Z" fill="#231f20"/><path d="M635.6,251.5c-4.2,0-8.9-2.6-9.8-7.2s2.6-5.2,2-8.4a3.1,3.1,0,0,0-3.3-2.4c-13,0-18.5,40.2-19.7,49.8-.8,8-1.3,15.8-1.5,23.8-.1,2.4-1.1,3.8-3.7,3.8H577.1a3.7,3.7,0,0,1-3.8-3,3.3,3.3,0,0,1,0-1l.3-58.6a29.4,29.4,0,0,0-.5-6.6c-1.6-8.4-6.4-8.2-12.9-8.2-1.4,0-2.9-.2-3.2-2s.4-1.8,1.3-2.2c5.3-2.8,33.3-9.8,39.7-9.8a3.8,3.8,0,0,1,4,3c.6,3-2.2,40-2.6,45.4H601c2.7-17,8.5-48.8,30.7-48.8,8.6,0,15.3,4.8,17,13.6S646,251.5,635.6,251.5Z" fill="#231f20"/><rect x="8" y="8" width="687.7" height="355.1" fill="none" stroke="#231f20" stroke-miterlimit="10" stroke-width="16"/></g></g></svg>